# xmcd CD database file
#
# Track frame offsets:
#	150
#	13750
#	22768
#	34833
#	48385
#	61370
#	75790
#	89573
#	104965
#	117448
#	126480
#	136045
#	151503
#	166958
#	185120
#	195775
#	213213
#	224145
#	244320
#	264873
#	274410
#	286045
#	302218
#	317043
#
# Disc length: 4373 seconds
#
# Revision: 0
# Processed by: cddbd v1.5.1PL0 Copyright (c) Steve Scherf et al.
# Submitted via: CDex 1.51
#
DISCID=55111318
DTITLE=McCoy, Hank and The Dead Ringers - Still Feeling Blue/Lately My Luck Has Been
DYEAR=1992
DGENRE=Country
TTITLE0=Still Feeling Blue
TTITLE1=Big Old Heartache
TTITLE2=Invitation to the Blues
TTITLE3=The Mansion You Stole
TTITLE4=Have You Forgotten?
TTITLE5=Long White Train
TTITLE6=I Wish You Knew
TTITLE7=Lately My Luck Has Been Changing
TTITLE8=One More Minute of Your Time
TTITLE9=No No Never
TTITLE10=Blue From Now On
TTITLE11=There's a Jukebox With Tearstains
TTITLE12=Vaya Con Dios
TTITLE13=Train Of Love
TTITLE14=Jealousy
TTITLE15=Can't Stand Being Single
TTITLE16=Can't Stop This Train
TTITLE17=Back in the Front of My Mind
TTITLE18=The Difference That You Made
TTITLE19=Bring My Baby Back
TTITLE20=The Bottom of Battle
TTITLE21=Still Awake and Waiting
TTITLE22=Still Missing You
TTITLE23=When I'm Gone
EXTD=YEAR: 1992
EXTT0=
EXTT1=
EXTT2=
EXTT3=
EXTT4=
EXTT5=
EXTT6=
EXTT7=
EXTT8=
EXTT9=
EXTT10=
EXTT11=
EXTT12=
EXTT13=
EXTT14=
EXTT15=
EXTT16=
EXTT17=
EXTT18=
EXTT19=
EXTT20=
EXTT21=
EXTT22=
EXTT23=
PLAYORDER=
